<mxfile host="app.diagrams.net" modified="2023-03-02T01:11:49.995Z" agent="5.0 (Windows NT 10.0; Win64; x64) AppleWebKit/537.36 (KHTML, like Gecko) Chrome/109.0.0.0 Safari/537.36" etag="v73IqevJ6qumYnqDuDxi" version="20.8.4" type="github">
  <diagram id="nZ-C2siDIxId9v_9ZGeX" name="第 1 页">
    <mxGraphModel dx="2963" dy="1514" grid="1" gridSize="10" guides="1" tooltips="1" connect="1" arrows="1" fold="1" page="1" pageScale="1" pageWidth="1920" pageHeight="1200" math="0" shadow="0">
      <root>
        <mxCell id="0" />
        <mxCell id="1" parent="0" />
        <mxCell id="l78vxfWiCnXLI86VXf0r-29" value="验收阶段" style="rounded=0;whiteSpace=wrap;html=1;verticalAlign=top;fillColor=#f5f5f5;fontColor=#333333;strokeColor=#666666;" parent="1" vertex="1">
          <mxGeometry x="1420" y="40" width="460" height="1030" as="geometry" />
        </mxCell>
        <mxCell id="l78vxfWiCnXLI86VXf0r-28" value="运维阶段" style="rounded=0;whiteSpace=wrap;html=1;verticalAlign=top;fillColor=#f5f5f5;fontColor=#333333;strokeColor=#666666;" parent="1" vertex="1">
          <mxGeometry x="730" y="40" width="480" height="1030" as="geometry" />
        </mxCell>
        <mxCell id="l78vxfWiCnXLI86VXf0r-27" value="招调投标阶段" style="rounded=0;whiteSpace=wrap;html=1;verticalAlign=top;labelPosition=center;verticalLabelPosition=middle;align=center;fillColor=#f5f5f5;fontColor=#333333;strokeColor=#666666;" parent="1" vertex="1">
          <mxGeometry x="40" y="40" width="530" height="1030" as="geometry" />
        </mxCell>
        <mxCell id="l78vxfWiCnXLI86VXf0r-9" style="edgeStyle=orthogonalEdgeStyle;rounded=0;orthogonalLoop=1;jettySize=auto;html=1;entryX=0.5;entryY=0;entryDx=0;entryDy=0;" parent="1" source="l78vxfWiCnXLI86VXf0r-1" target="l78vxfWiCnXLI86VXf0r-7" edge="1">
          <mxGeometry relative="1" as="geometry" />
        </mxCell>
        <mxCell id="l78vxfWiCnXLI86VXf0r-1" value="需求管理" style="rounded=0;whiteSpace=wrap;html=1;verticalAlign=top;fillColor=#dae8fc;strokeColor=#6c8ebf;" parent="1" vertex="1">
          <mxGeometry x="140" y="130" width="300" height="150" as="geometry" />
        </mxCell>
        <mxCell id="l78vxfWiCnXLI86VXf0r-2" value="项目需求说明书" style="rounded=0;whiteSpace=wrap;html=1;verticalAlign=top;fillColor=#fff2cc;strokeColor=#d6b656;" parent="1" vertex="1">
          <mxGeometry x="161.66999999999996" y="170" width="255" height="90" as="geometry" />
        </mxCell>
        <mxCell id="l78vxfWiCnXLI86VXf0r-3" value="申报表" style="rounded=0;whiteSpace=wrap;html=1;container=0;fillColor=#ffe6cc;strokeColor=#d79b00;" parent="1" vertex="1">
          <mxGeometry x="256.65999999999997" y="205" width="66.66666666666667" height="30" as="geometry" />
        </mxCell>
        <mxCell id="l78vxfWiCnXLI86VXf0r-4" value="明细表" style="rounded=0;whiteSpace=wrap;html=1;container=0;fillColor=#ffe6cc;strokeColor=#d79b00;" parent="1" vertex="1">
          <mxGeometry x="336.6644444444445" y="205" width="66.66666666666667" height="30" as="geometry" />
        </mxCell>
        <mxCell id="l78vxfWiCnXLI86VXf0r-5" value="单价表" style="rounded=0;whiteSpace=wrap;html=1;container=0;fillColor=#ffe6cc;strokeColor=#d79b00;" parent="1" vertex="1">
          <mxGeometry x="176.6633333333333" y="205" width="66.66666666666667" height="30" as="geometry" />
        </mxCell>
        <mxCell id="l78vxfWiCnXLI86VXf0r-10" style="edgeStyle=orthogonalEdgeStyle;rounded=0;orthogonalLoop=1;jettySize=auto;html=1;entryX=1;entryY=0.333;entryDx=0;entryDy=0;entryPerimeter=0;" parent="1" source="l78vxfWiCnXLI86VXf0r-7" target="l78vxfWiCnXLI86VXf0r-1" edge="1">
          <mxGeometry relative="1" as="geometry">
            <Array as="points">
              <mxPoint x="480" y="380" />
              <mxPoint x="480" y="180" />
            </Array>
          </mxGeometry>
        </mxCell>
        <mxCell id="Ab2h3qabQfSz-R_gkfAf-26" value="不同意" style="edgeLabel;html=1;align=center;verticalAlign=middle;resizable=0;points=[];" vertex="1" connectable="0" parent="l78vxfWiCnXLI86VXf0r-10">
          <mxGeometry x="0.1449" y="-1" relative="1" as="geometry">
            <mxPoint as="offset" />
          </mxGeometry>
        </mxCell>
        <mxCell id="l78vxfWiCnXLI86VXf0r-12" style="edgeStyle=orthogonalEdgeStyle;rounded=0;orthogonalLoop=1;jettySize=auto;html=1;entryX=0.5;entryY=0;entryDx=0;entryDy=0;" parent="1" source="l78vxfWiCnXLI86VXf0r-7" target="l78vxfWiCnXLI86VXf0r-11" edge="1">
          <mxGeometry relative="1" as="geometry" />
        </mxCell>
        <mxCell id="Ab2h3qabQfSz-R_gkfAf-27" value="同意" style="edgeLabel;html=1;align=center;verticalAlign=middle;resizable=0;points=[];" vertex="1" connectable="0" parent="l78vxfWiCnXLI86VXf0r-12">
          <mxGeometry x="-0.2732" y="-1" relative="1" as="geometry">
            <mxPoint as="offset" />
          </mxGeometry>
        </mxCell>
        <mxCell id="l78vxfWiCnXLI86VXf0r-7" value="需求审批" style="rhombus;whiteSpace=wrap;html=1;fillColor=#f8cecc;strokeColor=#b85450;" parent="1" vertex="1">
          <mxGeometry x="209.16999999999996" y="340" width="160" height="80" as="geometry" />
        </mxCell>
        <mxCell id="l78vxfWiCnXLI86VXf0r-16" style="edgeStyle=orthogonalEdgeStyle;rounded=0;orthogonalLoop=1;jettySize=auto;html=1;" parent="1" source="l78vxfWiCnXLI86VXf0r-11" target="l78vxfWiCnXLI86VXf0r-15" edge="1">
          <mxGeometry relative="1" as="geometry" />
        </mxCell>
        <mxCell id="Ab2h3qabQfSz-R_gkfAf-30" value="同意" style="edgeLabel;html=1;align=center;verticalAlign=middle;resizable=0;points=[];" vertex="1" connectable="0" parent="l78vxfWiCnXLI86VXf0r-16">
          <mxGeometry x="0.2528" y="1" relative="1" as="geometry">
            <mxPoint as="offset" />
          </mxGeometry>
        </mxCell>
        <mxCell id="l78vxfWiCnXLI86VXf0r-11" value="立项管理" style="rounded=0;whiteSpace=wrap;html=1;verticalAlign=top;fillColor=#dae8fc;strokeColor=#6c8ebf;" parent="1" vertex="1">
          <mxGeometry x="190" y="480" width="200" height="80" as="geometry" />
        </mxCell>
        <mxCell id="l78vxfWiCnXLI86VXf0r-13" value="技术规范书" style="rounded=0;whiteSpace=wrap;html=1;verticalAlign=top;" parent="1" vertex="1">
          <mxGeometry x="236.66" y="970" width="100" height="30" as="geometry" />
        </mxCell>
        <mxCell id="l78vxfWiCnXLI86VXf0r-17" style="edgeStyle=orthogonalEdgeStyle;rounded=0;orthogonalLoop=1;jettySize=auto;html=1;entryX=1;entryY=0.5;entryDx=0;entryDy=0;" parent="1" source="l78vxfWiCnXLI86VXf0r-15" target="l78vxfWiCnXLI86VXf0r-11" edge="1">
          <mxGeometry relative="1" as="geometry">
            <Array as="points">
              <mxPoint x="410" y="660" />
              <mxPoint x="410" y="520" />
            </Array>
          </mxGeometry>
        </mxCell>
        <mxCell id="Ab2h3qabQfSz-R_gkfAf-29" value="不同意" style="edgeLabel;html=1;align=center;verticalAlign=middle;resizable=0;points=[];" vertex="1" connectable="0" parent="l78vxfWiCnXLI86VXf0r-17">
          <mxGeometry x="-0.0367" relative="1" as="geometry">
            <mxPoint as="offset" />
          </mxGeometry>
        </mxCell>
        <mxCell id="l78vxfWiCnXLI86VXf0r-25" style="edgeStyle=orthogonalEdgeStyle;rounded=0;orthogonalLoop=1;jettySize=auto;html=1;entryX=0.5;entryY=0;entryDx=0;entryDy=0;" parent="1" source="l78vxfWiCnXLI86VXf0r-15" target="l78vxfWiCnXLI86VXf0r-18" edge="1">
          <mxGeometry relative="1" as="geometry" />
        </mxCell>
        <mxCell id="Ab2h3qabQfSz-R_gkfAf-31" value="同意" style="edgeLabel;html=1;align=center;verticalAlign=middle;resizable=0;points=[];" vertex="1" connectable="0" parent="l78vxfWiCnXLI86VXf0r-25">
          <mxGeometry x="-0.2505" relative="1" as="geometry">
            <mxPoint as="offset" />
          </mxGeometry>
        </mxCell>
        <mxCell id="l78vxfWiCnXLI86VXf0r-15" value="项目审批" style="rhombus;whiteSpace=wrap;html=1;fillColor=#f8cecc;strokeColor=#b85450;" parent="1" vertex="1">
          <mxGeometry x="209.16999999999996" y="620" width="160" height="80" as="geometry" />
        </mxCell>
        <mxCell id="l78vxfWiCnXLI86VXf0r-26" style="edgeStyle=orthogonalEdgeStyle;rounded=0;orthogonalLoop=1;jettySize=auto;html=1;" parent="1" source="l78vxfWiCnXLI86VXf0r-18" target="l78vxfWiCnXLI86VXf0r-20" edge="1">
          <mxGeometry relative="1" as="geometry" />
        </mxCell>
        <mxCell id="Ab2h3qabQfSz-R_gkfAf-32" value="同意" style="edgeLabel;html=1;align=center;verticalAlign=middle;resizable=0;points=[];" vertex="1" connectable="0" parent="l78vxfWiCnXLI86VXf0r-26">
          <mxGeometry x="-0.3311" relative="1" as="geometry">
            <mxPoint as="offset" />
          </mxGeometry>
        </mxCell>
        <mxCell id="l78vxfWiCnXLI86VXf0r-18" value="招标管理" style="rounded=0;whiteSpace=wrap;html=1;verticalAlign=top;fillColor=#dae8fc;strokeColor=#6c8ebf;" parent="1" vertex="1">
          <mxGeometry x="190" y="760" width="200" height="80" as="geometry" />
        </mxCell>
        <mxCell id="l78vxfWiCnXLI86VXf0r-20" value="合同管理" style="rounded=0;whiteSpace=wrap;html=1;verticalAlign=top;fillColor=#dae8fc;strokeColor=#6c8ebf;" parent="1" vertex="1">
          <mxGeometry x="158.34" y="930" width="261.66" height="100" as="geometry" />
        </mxCell>
        <mxCell id="Ab2h3qabQfSz-R_gkfAf-14" style="edgeStyle=orthogonalEdgeStyle;rounded=0;orthogonalLoop=1;jettySize=auto;html=1;entryX=0.5;entryY=0;entryDx=0;entryDy=0;" edge="1" parent="1" source="l78vxfWiCnXLI86VXf0r-21" target="Ab2h3qabQfSz-R_gkfAf-3">
          <mxGeometry relative="1" as="geometry" />
        </mxCell>
        <mxCell id="Ab2h3qabQfSz-R_gkfAf-33" value="同意" style="edgeLabel;html=1;align=center;verticalAlign=middle;resizable=0;points=[];" vertex="1" connectable="0" parent="Ab2h3qabQfSz-R_gkfAf-14">
          <mxGeometry x="-0.2167" y="1" relative="1" as="geometry">
            <mxPoint as="offset" />
          </mxGeometry>
        </mxCell>
        <mxCell id="l78vxfWiCnXLI86VXf0r-21" value="入场管理" style="rounded=0;whiteSpace=wrap;html=1;verticalAlign=top;fillColor=#dae8fc;strokeColor=#6c8ebf;" parent="1" vertex="1">
          <mxGeometry x="860" y="130" width="220" height="190" as="geometry" />
        </mxCell>
        <mxCell id="Ab2h3qabQfSz-R_gkfAf-19" style="edgeStyle=orthogonalEdgeStyle;rounded=0;orthogonalLoop=1;jettySize=auto;html=1;" edge="1" parent="1" source="l78vxfWiCnXLI86VXf0r-23" target="Ab2h3qabQfSz-R_gkfAf-18">
          <mxGeometry relative="1" as="geometry" />
        </mxCell>
        <mxCell id="Ab2h3qabQfSz-R_gkfAf-36" value="同意" style="edgeLabel;html=1;align=center;verticalAlign=middle;resizable=0;points=[];" vertex="1" connectable="0" parent="Ab2h3qabQfSz-R_gkfAf-19">
          <mxGeometry x="-0.3077" relative="1" as="geometry">
            <mxPoint as="offset" />
          </mxGeometry>
        </mxCell>
        <mxCell id="l78vxfWiCnXLI86VXf0r-23" value="运维验收管理" style="rounded=0;whiteSpace=wrap;html=1;verticalAlign=top;fillColor=#dae8fc;strokeColor=#6c8ebf;" parent="1" vertex="1">
          <mxGeometry x="1500" y="250" width="280" height="220" as="geometry" />
        </mxCell>
        <mxCell id="l78vxfWiCnXLI86VXf0r-31" value="" style="shape=singleArrow;whiteSpace=wrap;html=1;" parent="1" vertex="1">
          <mxGeometry x="1250" y="490" width="100" height="60" as="geometry" />
        </mxCell>
        <mxCell id="l78vxfWiCnXLI86VXf0r-32" value="" style="shape=singleArrow;whiteSpace=wrap;html=1;" parent="1" vertex="1">
          <mxGeometry x="600" y="495" width="100" height="60" as="geometry" />
        </mxCell>
        <mxCell id="l78vxfWiCnXLI86VXf0r-35" value="运维服务方案" style="rounded=0;whiteSpace=wrap;html=1;verticalAlign=top;fillColor=#fff2cc;strokeColor=#d6b656;" parent="1" vertex="1">
          <mxGeometry x="900" y="170" width="140" height="30" as="geometry" />
        </mxCell>
        <mxCell id="l78vxfWiCnXLI86VXf0r-36" value="运维人员资格报审表" style="rounded=0;whiteSpace=wrap;html=1;verticalAlign=top;fillColor=#fff2cc;strokeColor=#d6b656;" parent="1" vertex="1">
          <mxGeometry x="900" y="220" width="140" height="30" as="geometry" />
        </mxCell>
        <mxCell id="l78vxfWiCnXLI86VXf0r-37" value="开工报告" style="rounded=0;whiteSpace=wrap;html=1;verticalAlign=top;fillColor=#fff2cc;strokeColor=#d6b656;" parent="1" vertex="1">
          <mxGeometry x="900" y="270" width="140" height="30" as="geometry" />
        </mxCell>
        <mxCell id="l78vxfWiCnXLI86VXf0r-46" value="技术规范书" style="rounded=0;whiteSpace=wrap;html=1;verticalAlign=top;fillColor=#fff2cc;strokeColor=#d6b656;" parent="1" vertex="1">
          <mxGeometry x="240" y="790" width="100" height="30" as="geometry" />
        </mxCell>
        <mxCell id="l78vxfWiCnXLI86VXf0r-47" value="信息系统运行维护和技术支持服务合同" style="rounded=0;whiteSpace=wrap;html=1;fillColor=#fff2cc;strokeColor=#d6b656;" parent="1" vertex="1">
          <mxGeometry x="173.33" y="960" width="236.67" height="50" as="geometry" />
        </mxCell>
        <mxCell id="l78vxfWiCnXLI86VXf0r-50" value="信息客户服务" style="rounded=0;whiteSpace=wrap;html=1;" parent="1" vertex="1">
          <mxGeometry x="820" y="930" width="120" height="60" as="geometry" />
        </mxCell>
        <mxCell id="l78vxfWiCnXLI86VXf0r-51" value="硬件运维服务" style="rounded=0;whiteSpace=wrap;html=1;" parent="1" vertex="1">
          <mxGeometry x="820" y="820" width="120" height="60" as="geometry" />
        </mxCell>
        <mxCell id="l78vxfWiCnXLI86VXf0r-52" value="监测值班" style="rounded=0;whiteSpace=wrap;html=1;" parent="1" vertex="1">
          <mxGeometry x="990" y="820" width="120" height="60" as="geometry" />
        </mxCell>
        <mxCell id="Ab2h3qabQfSz-R_gkfAf-1" value="软件运维服务" style="rounded=0;whiteSpace=wrap;html=1;" vertex="1" parent="1">
          <mxGeometry x="1000" y="930" width="120" height="60" as="geometry" />
        </mxCell>
        <mxCell id="Ab2h3qabQfSz-R_gkfAf-2" value="信息基础设置运维服务" style="rounded=0;whiteSpace=wrap;html=1;" vertex="1" parent="1">
          <mxGeometry x="870" y="720" width="180" height="60" as="geometry" />
        </mxCell>
        <mxCell id="Ab2h3qabQfSz-R_gkfAf-6" style="edgeStyle=orthogonalEdgeStyle;rounded=0;orthogonalLoop=1;jettySize=auto;html=1;entryX=1;entryY=0.5;entryDx=0;entryDy=0;" edge="1" parent="1" source="Ab2h3qabQfSz-R_gkfAf-3" target="l78vxfWiCnXLI86VXf0r-21">
          <mxGeometry relative="1" as="geometry">
            <Array as="points">
              <mxPoint x="1140" y="480" />
              <mxPoint x="1140" y="225" />
            </Array>
          </mxGeometry>
        </mxCell>
        <mxCell id="Ab2h3qabQfSz-R_gkfAf-35" value="不同意" style="edgeLabel;html=1;align=center;verticalAlign=middle;resizable=0;points=[];" vertex="1" connectable="0" parent="Ab2h3qabQfSz-R_gkfAf-6">
          <mxGeometry x="0.1556" relative="1" as="geometry">
            <mxPoint as="offset" />
          </mxGeometry>
        </mxCell>
        <mxCell id="Ab2h3qabQfSz-R_gkfAf-13" style="edgeStyle=orthogonalEdgeStyle;rounded=0;orthogonalLoop=1;jettySize=auto;html=1;" edge="1" parent="1" source="Ab2h3qabQfSz-R_gkfAf-3" target="Ab2h3qabQfSz-R_gkfAf-7">
          <mxGeometry relative="1" as="geometry" />
        </mxCell>
        <mxCell id="Ab2h3qabQfSz-R_gkfAf-34" value="同意" style="edgeLabel;html=1;align=center;verticalAlign=middle;resizable=0;points=[];" vertex="1" connectable="0" parent="Ab2h3qabQfSz-R_gkfAf-13">
          <mxGeometry x="-0.3" y="-1" relative="1" as="geometry">
            <mxPoint as="offset" />
          </mxGeometry>
        </mxCell>
        <mxCell id="Ab2h3qabQfSz-R_gkfAf-3" value="开工审批" style="rhombus;whiteSpace=wrap;html=1;fillColor=#f8cecc;strokeColor=#b85450;" vertex="1" parent="1">
          <mxGeometry x="890" y="440" width="160" height="80" as="geometry" />
        </mxCell>
        <mxCell id="Ab2h3qabQfSz-R_gkfAf-7" value="运维过程管理" style="rounded=0;whiteSpace=wrap;html=1;verticalAlign=top;fillColor=#dae8fc;strokeColor=#6c8ebf;" vertex="1" parent="1">
          <mxGeometry x="780" y="620" width="380" height="380" as="geometry" />
        </mxCell>
        <mxCell id="Ab2h3qabQfSz-R_gkfAf-8" value="信息客户服务" style="rounded=0;whiteSpace=wrap;html=1;fillColor=#d5e8d4;strokeColor=#82b366;" vertex="1" parent="1">
          <mxGeometry x="820" y="900" width="120" height="60" as="geometry" />
        </mxCell>
        <mxCell id="Ab2h3qabQfSz-R_gkfAf-9" value="硬件运维服务" style="rounded=0;whiteSpace=wrap;html=1;fillColor=#d5e8d4;strokeColor=#82b366;" vertex="1" parent="1">
          <mxGeometry x="820" y="790" width="120" height="60" as="geometry" />
        </mxCell>
        <mxCell id="Ab2h3qabQfSz-R_gkfAf-10" value="监测值班" style="rounded=0;whiteSpace=wrap;html=1;fillColor=#d5e8d4;strokeColor=#82b366;" vertex="1" parent="1">
          <mxGeometry x="1000" y="790" width="120" height="60" as="geometry" />
        </mxCell>
        <mxCell id="Ab2h3qabQfSz-R_gkfAf-11" value="软件运维服务" style="rounded=0;whiteSpace=wrap;html=1;fillColor=#d5e8d4;strokeColor=#82b366;" vertex="1" parent="1">
          <mxGeometry x="1000" y="900" width="120" height="60" as="geometry" />
        </mxCell>
        <mxCell id="Ab2h3qabQfSz-R_gkfAf-12" value="信息基础设置运维服务" style="rounded=0;whiteSpace=wrap;html=1;fillColor=#d5e8d4;strokeColor=#82b366;" vertex="1" parent="1">
          <mxGeometry x="880" y="670" width="180" height="60" as="geometry" />
        </mxCell>
        <mxCell id="Ab2h3qabQfSz-R_gkfAf-15" value="竣工报告" style="rounded=0;whiteSpace=wrap;html=1;container=0;fillColor=#fff2cc;strokeColor=#d6b656;" vertex="1" parent="1">
          <mxGeometry x="1579.99" y="300" width="120.01" height="30" as="geometry" />
        </mxCell>
        <mxCell id="Ab2h3qabQfSz-R_gkfAf-16" value="工作总结报告" style="rounded=0;whiteSpace=wrap;html=1;container=0;fillColor=#fff2cc;strokeColor=#d6b656;" vertex="1" parent="1">
          <mxGeometry x="1580" y="360" width="120" height="30" as="geometry" />
        </mxCell>
        <mxCell id="Ab2h3qabQfSz-R_gkfAf-17" value="验收申请单" style="rounded=0;whiteSpace=wrap;html=1;container=0;fillColor=#fff2cc;strokeColor=#d6b656;" vertex="1" parent="1">
          <mxGeometry x="1580" y="420" width="120" height="30" as="geometry" />
        </mxCell>
        <mxCell id="Ab2h3qabQfSz-R_gkfAf-20" style="edgeStyle=orthogonalEdgeStyle;rounded=0;orthogonalLoop=1;jettySize=auto;html=1;entryX=1;entryY=0.5;entryDx=0;entryDy=0;" edge="1" parent="1" source="Ab2h3qabQfSz-R_gkfAf-18" target="l78vxfWiCnXLI86VXf0r-23">
          <mxGeometry relative="1" as="geometry">
            <Array as="points">
              <mxPoint x="1820" y="640" />
              <mxPoint x="1820" y="360" />
            </Array>
          </mxGeometry>
        </mxCell>
        <mxCell id="Ab2h3qabQfSz-R_gkfAf-38" value="不同意" style="edgeLabel;html=1;align=center;verticalAlign=middle;resizable=0;points=[];" vertex="1" connectable="0" parent="Ab2h3qabQfSz-R_gkfAf-20">
          <mxGeometry x="0.2448" relative="1" as="geometry">
            <mxPoint as="offset" />
          </mxGeometry>
        </mxCell>
        <mxCell id="Ab2h3qabQfSz-R_gkfAf-24" style="edgeStyle=orthogonalEdgeStyle;rounded=0;orthogonalLoop=1;jettySize=auto;html=1;" edge="1" parent="1" source="Ab2h3qabQfSz-R_gkfAf-18" target="Ab2h3qabQfSz-R_gkfAf-23">
          <mxGeometry relative="1" as="geometry" />
        </mxCell>
        <mxCell id="Ab2h3qabQfSz-R_gkfAf-37" value="同意" style="edgeLabel;html=1;align=center;verticalAlign=middle;resizable=0;points=[];" vertex="1" connectable="0" parent="Ab2h3qabQfSz-R_gkfAf-24">
          <mxGeometry x="-0.3" relative="1" as="geometry">
            <mxPoint as="offset" />
          </mxGeometry>
        </mxCell>
        <mxCell id="Ab2h3qabQfSz-R_gkfAf-18" value="验收审批" style="rhombus;whiteSpace=wrap;html=1;fillColor=#f8cecc;strokeColor=#b85450;" vertex="1" parent="1">
          <mxGeometry x="1560" y="600" width="160" height="80" as="geometry" />
        </mxCell>
        <mxCell id="Ab2h3qabQfSz-R_gkfAf-23" value="信息运维项目结算报告" style="rounded=1;whiteSpace=wrap;html=1;fillColor=#fff2cc;strokeColor=#d6b656;" vertex="1" parent="1">
          <mxGeometry x="1580" y="780" width="120" height="60" as="geometry" />
        </mxCell>
        <mxCell id="Ab2h3qabQfSz-R_gkfAf-25" value="评审意见" style="rounded=0;whiteSpace=wrap;html=1;verticalAlign=top;fillColor=#fff2cc;strokeColor=#d6b656;" vertex="1" parent="1">
          <mxGeometry x="236.66" y="510" width="100" height="30" as="geometry" />
        </mxCell>
      </root>
    </mxGraphModel>
  </diagram>
</mxfile>
